<svg viewBox="0 0 297 296" fill="none" xmlns="http://www.w3.org/2000/svg">
    <path fill-rule="evenodd" clip-rule="evenodd" d="M0 148C0 65.7526 69.6575 0 146.5 0C221.5 0 296.5 53.5141 296.5 148C296.5 159.046 287.546 168 276.5 168H149.5C138.454 168 129.5 159.046 129.5 148C129.5 136.954 138.454 128 149.5 128H254.906C245.674 71.8598 197.701 40 146.5 40C91.3424 40 40 88.2483 40 148C40 207.309 91.3893 256 150.5 256C161.546 256 170.5 264.955 170.5 276C170.5 287.046 161.546 296 150.5 296C70.6107 296 0 230.69 0 148Z"/>
</svg>
